<?xml version="1.0" encoding="UTF-8" standalone="no"?>
<!-- Created with Inkscape (http://www.inkscape.org/) -->

<svg
   width="52.300343mm"
   height="93.298668mm"
   viewBox="0 0 52.300343 93.298668"
   version="1.1"
   id="svg5"
   inkscape:version="1.1.2 (b8e25be833, 2022-02-05)"
   sodipodi:docname="cactus.svg"
   xmlns:inkscape="http://www.inkscape.org/namespaces/inkscape"
   xmlns:sodipodi="http://sodipodi.sourceforge.net/DTD/sodipodi-0.dtd"
   xmlns="http://www.w3.org/2000/svg"
   xmlns:svg="http://www.w3.org/2000/svg">
  <sodipodi:namedview
     id="namedview7"
     pagecolor="#ffffff"
     bordercolor="#666666"
     borderopacity="1.0"
     inkscape:pageshadow="2"
     inkscape:pageopacity="0.0"
     inkscape:pagecheckerboard="0"
     inkscape:document-units="mm"
     showgrid="false"
     inkscape:snap-global="false"
     inkscape:zoom="1.0998546"
     inkscape:cx="67.281621"
     inkscape:cy="188.2067"
     inkscape:window-width="1097"
     inkscape:window-height="859"
     inkscape:window-x="1178"
     inkscape:window-y="354"
     inkscape:window-maximized="0"
     inkscape:current-layer="layer1"
     fit-margin-top="0"
     fit-margin-left="0"
     fit-margin-right="0"
     fit-margin-bottom="0" />
  <defs
     id="defs2" />
  <g
     inkscape:label="Layer 1"
     inkscape:groupmode="layer"
     id="layer1"
     transform="translate(-82.196543,-83.5504)">
    <path
       style="fill:#000000;fill-opacity:1;stroke:#000000;stroke-width:0.264583px;stroke-linecap:butt;stroke-linejoin:miter;stroke-opacity:1"
       d="M 86.353999,176.2268 82.329895,96.618556 c 0,0 4.082476,-12.587629 15.989691,-12.927835 11.907214,-0.340207 14.288654,10.206185 14.288654,10.206185 l -0.68041,30.958764 c 0,0 3.07896,1.60138 7.50164,-1.80068 4.42268,-3.40206 0.99643,-10.20619 0.99643,-10.20619 0,0 2.02415,-6.70447 6.78704,-6.70447 4.76288,0 7.14433,5.7835 7.14433,5.7835 0,0 0.46403,18.50204 -5.99989,23.26492 -6.46392,4.76289 -16.23026,6.46392 -16.23026,6.46392 l -1.88322,35.05125 -2.05833,-0.14091 1.21991,-37.84837 c 0,0 9.8412,0.16036 16.28822,-4.36471 6.79952,-4.77249 7.09658,-22.37227 7.09658,-22.37227 0,0 -1.32309,-3.12731 -4.93152,-2.88675 -3.60844,0.24056 -5.1721,3.12731 -5.1721,3.12731 0,0 1.55093,8.16707 -0.72167,10.58473 -5.65321,6.01405 -11.78755,3.72871 -11.78755,3.72871 l 0.36085,-32.596161 c 0,0 -1.20282,-7.457426 -12.388955,-7.096582 -11.186136,0.360844 -13.712039,10.103609 -13.712039,10.103609 l 3.608432,79.385494 z"
       id="path42"
       sodipodi:nodetypes="ccsccscscsccccscscsccsccc" />
  </g>
</svg>
