<?xml version="1.0" encoding="UTF-8" standalone="no"?>
<!-- Created with Inkscape (http://www.inkscape.org/) -->

<svg
   width="164.29752mm"
   height="116.84503mm"
   viewBox="0 0 164.29752 116.84503"
   version="1.1"
   id="svg8344"
   inkscape:version="1.1.2 (b8e25be833, 2022-02-05)"
   sodipodi:docname="forest.svg"
   xmlns:inkscape="http://www.inkscape.org/namespaces/inkscape"
   xmlns:sodipodi="http://sodipodi.sourceforge.net/DTD/sodipodi-0.dtd"
   xmlns="http://www.w3.org/2000/svg"
   xmlns:svg="http://www.w3.org/2000/svg">
  <sodipodi:namedview
     id="namedview8346"
     pagecolor="#ffffff"
     bordercolor="#666666"
     borderopacity="1.0"
     inkscape:pageshadow="2"
     inkscape:pageopacity="0.0"
     inkscape:pagecheckerboard="0"
     inkscape:document-units="mm"
     showgrid="false"
     inkscape:snap-global="false"
     fit-margin-top="0"
     fit-margin-left="0"
     fit-margin-right="0"
     fit-margin-bottom="0"
     inkscape:zoom="0.77771465"
     inkscape:cx="258.44955"
     inkscape:cy="327.88376"
     inkscape:window-width="1655"
     inkscape:window-height="1021"
     inkscape:window-x="842"
     inkscape:window-y="293"
     inkscape:window-maximized="0"
     inkscape:current-layer="layer1" />
  <defs
     id="defs8341" />
  <g
     inkscape:label="Layer 1"
     inkscape:groupmode="layer"
     id="layer1"
     transform="translate(-36.653537,-61.619526)">
    <path
       id="path8381"
       style="fill:#3d480a;fill-opacity:1;stroke:none;stroke-width:0.269947px;stroke-linecap:butt;stroke-linejoin:miter;stroke-opacity:1"
       d="M 104.17482,61.623111 C 96.715884,61.505451 88.796255,64.26455 79.950855,72.804342 63.347921,67.040193 50.670882,69.688857 46.30777,90.154703 c -17.000509,2.306429 -8.557124,22.887837 2.478772,21.092767 -8.867456,9.93219 4.333584,26.19555 18.060928,18.71152 -1.128298,13.30628 29.582449,23.76947 43.91374,12.58735 7.78118,10.3281 39.55513,8.83484 42.14235,-3.74241 11.18196,8.78303 30.95272,2.08871 28.33105,-11.22671 12.55081,4.42564 21.67795,-9.7586 13.8113,-16.32975 7.25628,-3.91857 10.6164,-24.799008 -6.72841,-23.814565 2.1957,-8.213023 -6.73256,-22.128403 -25.85227,-13.607954 -9.47563,-10.562698 -21.68861,-12.798144 -36.83031,-6.124175 -7.00277,-2.966062 -14.00116,-5.960005 -21.4601,-6.077665 z m 8.7564,6.299875 c 6.38378,0.09628 8.8317,1.525624 14.82507,3.952719 12.95912,-5.461241 26.95311,-2.611657 35.06289,6.031682 16.36375,-6.972178 24.00526,4.41461 22.12605,11.135238 14.84467,-0.805558 11.96886,16.280655 5.75852,19.487185 6.73274,5.3771 -1.07873,16.98394 -11.82043,13.36249 2.24378,10.89586 -14.67748,16.3741 -24.24763,9.18704 -2.21429,10.29182 -29.40796,11.5132 -36.06753,3.06182 -12.26554,9.15022 -38.549607,0.58825 -37.583946,-10.30014 -11.74864,6.12411 -23.046628,-7.1838 -15.457356,-15.31121 C 56.08171,109.9987 48.855267,93.157211 63.405269,91.26988 63.243939,80.306396 70.90642,72.355558 85.116155,77.072299 c 7.5704,-6.988022 21.431275,-9.245592 27.815065,-9.149313 z"
       sodipodi:nodetypes="scccccccccccsscccccccccccs" />
    <path
       style="fill:#3d480a;fill-opacity:1;stroke:none;stroke-width:0.23862px;stroke-linecap:butt;stroke-linejoin:miter;stroke-opacity:1"
       d="m 83.082865,135.72855 -1.10604,34.72671 c 0,0 3.318122,2.38322 7.189265,2.38322 3.871143,0 7.465777,-2.04276 7.465777,-2.04276 l -1.659063,-32.68397 z"
       id="path11289" />
    <path
       style="fill:#3d480a;fill-opacity:1;stroke:none;stroke-width:0.23862px;stroke-linecap:butt;stroke-linejoin:miter;stroke-opacity:1"
       d="m 63.860189,126.72577 -1.10604,34.72671 c 0,0 -0.08394,4.76466 3.787203,4.76466 3.871143,0 7.465777,-2.04276 7.465777,-2.04276 l -1.659063,-32.68397 z"
       id="path11289-0"
       sodipodi:nodetypes="ccsccc" />
    <path
       style="fill:#3d480a;fill-opacity:1;stroke:none;stroke-width:0.23862px;stroke-linecap:butt;stroke-linejoin:miter;stroke-opacity:1"
       d="m 144.48993,140.83163 -1.78645,18.73702 c 0,0 -0.0839,4.76466 3.7872,4.76466 3.87115,0 7.46578,-2.04276 7.46578,-2.04276 l -1.31885,-24.51902 z"
       id="path11289-0-7"
       sodipodi:nodetypes="ccsccc" />
    <path
       style="fill:#3d480a;fill-opacity:1;stroke:none;stroke-width:0.220455px;stroke-linecap:butt;stroke-linejoin:miter;stroke-opacity:1"
       d="m 176.12822,132.16075 -1.10604,29.64077 c 0,0 3.31813,2.03418 7.18927,2.03418 3.87114,0 4.06372,-1.74358 4.06372,-1.74358 l -2.33949,-37.06562 z"
       id="path11289-04"
       sodipodi:nodetypes="ccsccc" />
    <path
       style="fill:#3d480a;fill-opacity:1;stroke:none;stroke-width:0.23862px;stroke-linecap:butt;stroke-linejoin:miter;stroke-opacity:1"
       d="m 101.96328,139.6536 -1.10604,34.72671 c 0,0 3.31812,2.38322 7.18926,2.38322 3.87115,0 7.46578,-2.04276 7.46578,-2.04276 l -1.65906,-32.68397 z"
       id="path11289-7" />
    <path
       style="fill:#3d480a;fill-opacity:1;stroke:none;stroke-width:0.23862px;stroke-linecap:butt;stroke-linejoin:miter;stroke-opacity:1"
       d="m 128.49936,141.35463 -1.10604,34.72671 c 0,0 3.31812,2.38322 7.18927,2.38322 3.87114,0 7.46577,-2.04276 7.46577,-2.04276 l -1.65906,-32.68397 z"
       id="path11289-2" />
    <path
       style="fill:#3d480a;fill-opacity:1;stroke:none;stroke-width:0.23862px;stroke-linecap:butt;stroke-linejoin:miter;stroke-opacity:1"
       d="m 157.07668,134.55051 -1.10604,34.72671 c 0,0 3.31812,2.38322 7.18927,2.38322 3.87114,0 7.46578,-2.04276 7.46578,-2.04276 l -1.65907,-32.68397 z"
       id="path11289-3" />
  </g>
</svg>
