<?xml version="1.0" encoding="UTF-8" standalone="no"?>
<!-- Created with Inkscape (http://www.inkscape.org/) -->

<svg
   width="160.23711mm"
   height="53.752571mm"
   viewBox="0 0 160.23711 53.752571"
   version="1.1"
   id="svg2005"
   inkscape:version="1.1.2 (b8e25be833, 2022-02-05)"
   sodipodi:docname="ocean.svg"
   xmlns:inkscape="http://www.inkscape.org/namespaces/inkscape"
   xmlns:sodipodi="http://sodipodi.sourceforge.net/DTD/sodipodi-0.dtd"
   xmlns="http://www.w3.org/2000/svg"
   xmlns:svg="http://www.w3.org/2000/svg">
  <sodipodi:namedview
     id="namedview2007"
     pagecolor="#ffffff"
     bordercolor="#666666"
     borderopacity="1.0"
     inkscape:pageshadow="2"
     inkscape:pageopacity="0.0"
     inkscape:pagecheckerboard="0"
     inkscape:document-units="mm"
     showgrid="false"
     inkscape:snap-global="false"
     inkscape:zoom="0.77771465"
     inkscape:cx="257.80664"
     inkscape:cy="133.08223"
     inkscape:window-width="1180"
     inkscape:window-height="890"
     inkscape:window-x="995"
     inkscape:window-y="220"
     inkscape:window-maximized="0"
     inkscape:current-layer="layer1"
     fit-margin-top="0"
     fit-margin-left="0"
     fit-margin-right="0"
     fit-margin-bottom="0" />
  <defs
     id="defs2002" />
  <g
     inkscape:label="Layer 1"
     inkscape:groupmode="layer"
     id="layer1"
     transform="translate(-28.917527,-113.11856)">
    <path
       style="fill:#caf1ff;fill-opacity:1;stroke:none;stroke-width:0.264583px;stroke-linecap:butt;stroke-linejoin:miter;stroke-opacity:1"
       d="m 28.917527,141.18556 c 0,0 18.030927,-14.96907 40.144329,-15.30928 23.474231,1.02062 22.029947,11.85826 34.701024,12.92784 12.67108,1.06959 15.63634,-11.4358 35.04125,-11.2268 19.4049,0.209 35.72164,15.64948 35.72164,15.64948 0,0 -15.6466,-11.09589 -35.04123,-10.54639 -19.39464,0.5495 -21.9903,8.4892 -34.36083,7.48453 -12.370529,-1.00466 -16.340832,-8.61535 -36.061854,-8.50515 -19.721023,0.1102 -40.144329,9.52577 -40.144329,9.52577 z"
       id="path2060"
       sodipodi:nodetypes="cczzczzzc" />
    <path
       style="fill:#caf1ff;fill-opacity:1;stroke:none;stroke-width:0.264583px;stroke-linecap:butt;stroke-linejoin:miter;stroke-opacity:1"
       d="m 43.546394,128.42784 c 0,0 18.030927,-14.96907 40.144329,-15.30928 23.474227,1.02062 22.029947,11.85826 34.701017,12.92784 12.67108,1.06959 15.63634,-11.4358 35.04125,-11.2268 19.4049,0.209 35.72164,15.64948 35.72164,15.64948 0,0 -15.6466,-11.09589 -35.04123,-10.54639 -19.39464,0.5495 -21.9903,8.4892 -34.36083,7.48453 -12.37052,-1.00466 -16.34082,-8.61535 -36.061847,-8.50515 -19.721023,0.1102 -40.144329,9.52577 -40.144329,9.52577 z"
       id="path2060-3"
       sodipodi:nodetypes="cczzczzzc" />
    <path
       style="fill:#caf1ff;fill-opacity:1;stroke:none;stroke-width:0.264583px;stroke-linecap:butt;stroke-linejoin:miter;stroke-opacity:1"
       d="m 43.206188,155.98453 c 0,0 18.030927,-14.96907 40.144329,-15.30928 23.474233,1.02062 22.029943,11.85826 34.701023,12.92784 12.67108,1.06959 15.63634,-11.4358 35.04125,-11.2268 19.4049,0.209 35.72164,15.64948 35.72164,15.64948 0,0 -15.6466,-11.09589 -35.04123,-10.54639 -19.39464,0.5495 -21.9903,8.4892 -34.36083,7.48453 -12.37053,-1.00466 -16.34083,-8.61535 -36.061853,-8.50515 -19.721023,0.1102 -40.144329,9.52577 -40.144329,9.52577 z"
       id="path2060-0"
       sodipodi:nodetypes="cczzczzzc" />
    <path
       style="fill:#caf1ff;fill-opacity:1;stroke:none;stroke-width:0.18197px;stroke-linecap:butt;stroke-linejoin:miter;stroke-opacity:1"
       d="m 58.17526,165.47028 c 0,0 12.427858,-10.27289 27.669572,-10.50637 16.179668,0.70043 15.184188,8.13802 23.917768,8.87205 8.73356,0.73403 10.77737,-7.8481 24.15225,-7.70467 13.37488,0.14343 24.62123,10.73984 24.62123,10.73984 0,0 -10.78446,-7.61483 -24.15225,-7.23772 -13.3678,0.37711 -15.15687,5.82592 -23.68328,5.13644 -8.52642,-0.68947 -11.262955,-5.91249 -24.855718,-5.83686 -13.592761,0.0756 -27.669572,6.53729 -27.669572,6.53729 z"
       id="path2060-6"
       sodipodi:nodetypes="cczzczzzc" />
  </g>
</svg>
